<?xml version="1.0" encoding="UTF-8"?>
<!DOCTYPE svg PUBLIC "-//W3C//DTD SVG 1.1//EN" "http://www.w3.org/Graphics/SVG/1.1/DTD/svg11.dtd">
<!-- Creator: CorelDRAW X6 -->
<svg xmlns="http://www.w3.org/2000/svg" xml:space="preserve" width="229.054mm" height="43.045mm" version="1.1" style="shape-rendering:geometricPrecision; text-rendering:geometricPrecision; image-rendering:optimizeQuality; fill-rule:evenodd; clip-rule:evenodd"
viewBox="0 0 22905 4305"
 xmlns:xlink="http://www.w3.org/1999/xlink">
 <defs>
  <style type="text/css">
   <![CDATA[
    .fil0 {fill:#E7E4E3}
   ]]>
  </style>
 </defs>
 <g id="Layer_x0020_1">
  <metadata id="CorelCorpID_0Corel-Layer"/>
  <g id="_671706544">
   <path class="fil0" d="M19087 2564c0,27 -4,46 -5,76 -4,69 -38,190 -72,252 -32,58 -55,99 -102,150l-21 20c-62,67 -168,133 -254,160l-158 34 -156 -1c-13,-2 -23,-5 -34,-6 -77,-9 -167,-46 -235,-85l-153 -126 -53 -68c-27,-42 -35,-51 -59,-103 -83,-181 -85,-419 -2,-597l27 -54c7,-11 8,-15 14,-26l50 -71c7,-9 12,-13 19,-21 67,-83 161,-142 260,-181 111,-44 179,-45 292,-45 59,0 180,31 233,55 47,21 91,49 134,78 10,6 14,11 22,18 10,9 14,13 23,22 99,88 151,182 193,307 7,20 15,49 18,67l15 147zm-58 -1026l-178 -109c-14,-8 -25,-13 -37,-21 -22,-13 -52,-27 -79,-38l-176 -58c-14,-4 -37,-9 -48,-11 -9,-1 -15,-1 -24,-3l-79 -11c-76,-11 -188,-7 -265,0 -17,2 -55,4 -69,8 -22,5 -42,7 -65,12 -25,6 -43,8 -67,14 -152,38 -300,102 -426,195 -17,13 -25,22 -42,34 -16,12 -28,22 -42,34l-116 118c-13,14 -22,26 -34,42l-49 68c-4,6 -4,6 -7,11 -80,122 -160,312 -180,463 -9,65 -23,142 -23,211 0,33 -6,46 -5,77l9 144c2,90 27,174 50,260l28 89c5,12 7,20 11,30l74 155c11,21 19,31 31,50 40,63 85,125 137,177l119 110c74,61 206,139 298,170 110,37 193,66 312,79 96,10 183,19 285,10l90 -10c12,-1 17,0 29,-3 150,-29 246,-69 376,-141 30,-16 54,-38 83,-56 18,-11 22,-18 38,-29 26,-19 97,-90 121,-95 2,19 1,9 8,24l20 47c22,54 65,98 113,130l32 18c37,19 83,34 124,34l297 0c10,0 14,-3 14,-13l0 -3310c0,-10 -3,-14 -14,-14l-441 0c-22,0 -50,8 -67,14l-57 28c-130,94 -109,226 -109,394 0,225 0,450 0,675z"/>
   <path class="fil0" d="M14549 2582c0,-50 -1,-59 8,-109 10,-60 17,-112 41,-170 81,-196 213,-324 412,-393l68 -18c97,-21 165,-25 266,-11 59,8 176,48 224,77 70,43 109,72 165,132 8,9 15,13 22,23 13,16 24,32 37,49 87,117 120,272 120,420 0,65 -17,171 -43,236 -26,64 -62,138 -107,190l-103 103 -75 51c-102,55 -166,76 -287,91 -42,5 -60,2 -95,2l-54 -4c-79,-11 -129,-22 -201,-55 -77,-36 -88,-45 -155,-97l-120 -132c-24,-36 -42,-69 -61,-110 -34,-73 -62,-198 -62,-275zm-697 -103c0,120 -5,250 24,367l13 63c17,80 45,158 75,226 16,35 29,66 48,100l28 48c45,71 95,142 154,201l10 8c1,1 2,1 2,2 12,12 23,24 36,36l220 158c63,38 137,68 209,92 101,34 209,54 313,65l211 1 151 -20c10,-2 17,-5 29,-7 194,-36 374,-142 520,-271 13,-12 28,-21 41,-30 6,27 27,74 40,95 18,29 40,51 64,75 52,52 128,73 206,73l315 0 0 -2074c0,-70 -12,-122 -46,-179 -45,-78 -146,-145 -238,-145 -54,0 -107,6 -152,28 -12,6 -31,16 -43,24 -11,8 -10,8 -20,16 -50,44 -75,80 -101,142 -7,16 -18,36 -21,51 -12,-8 -16,-15 -29,-25 -63,-50 -126,-100 -192,-145 -14,-9 -22,-13 -37,-21 -132,-74 -276,-121 -426,-140l-156 -10c-22,0 -31,5 -54,5 -130,1 -263,26 -385,69 -84,30 -196,75 -268,128 -54,41 -114,77 -162,125l-89 95c-42,49 -79,102 -112,158l-40 72c-6,12 -13,24 -18,36l-69 188c-26,96 -53,220 -53,321z"/>
   <path class="fil0" d="M21574 1871c45,0 107,9 144,18 21,5 44,7 66,15 84,31 99,32 181,89 69,48 88,68 139,130 8,10 12,12 18,22 60,92 106,181 122,292 18,123 15,261 -33,377 -26,64 -23,66 -65,133 -8,12 -10,14 -18,27l-97 110c-5,5 -4,4 -10,8 -12,10 7,-6 -5,4 -71,60 -133,95 -222,124l-129 29c-45,7 -17,6 -57,6l-200 -19c-42,-7 -72,-21 -106,-35 -9,-4 -1,1 -12,-4l-64 -34c-1,-1 -2,-1 -3,-2 -5,-3 -9,-4 -15,-8 -78,-47 -108,-87 -162,-144 -78,-81 -139,-247 -148,-365 -9,-115 -13,-36 0,-158 1,-14 0,-24 2,-38 3,-16 5,-20 7,-38 3,-18 4,-16 8,-32 4,-16 5,-21 10,-35l12 -37c23,-60 65,-139 105,-187 70,-83 171,-164 274,-199 13,-4 20,-6 34,-11l222 -39zm-1381 666c0,57 -2,138 6,192 20,132 43,247 92,371 14,36 30,71 48,105 27,51 54,99 88,146l225 238 137 93c103,61 220,101 337,131 71,18 120,20 190,31 40,6 170,6 213,4 12,-1 24,0 35,-1 85,-6 206,-34 284,-62l144 -63c99,-50 179,-122 267,-187 10,-7 11,-10 20,-16 22,95 100,188 192,222 38,14 68,21 119,21l315 0 0 -2105c0,-114 -76,-221 -170,-262 -82,-36 -183,-43 -265,-2 -46,23 -83,50 -113,90l-59 112c-6,13 -8,8 -10,26 -25,-6 -36,-25 -55,-40 -5,-4 -6,-4 -11,-7l-46 -39c-6,-5 -13,-9 -19,-13 -105,-75 -165,-115 -294,-165 -46,-18 -89,-28 -135,-40 -65,-16 -245,-41 -307,-33 -50,7 -108,6 -162,14 -64,9 -134,21 -191,38l-172 62c-11,5 -9,4 -18,9 -57,26 -113,56 -163,93l-128 102c-21,21 -41,34 -59,58 -25,32 -57,61 -82,94l-129 217c-40,83 -60,166 -88,254 -5,15 -7,31 -10,48 -17,75 -26,188 -26,266z"/>
   <path class="fil0" d="M9184 1781c112,0 198,14 298,53 45,18 84,43 123,70 10,7 12,11 22,19 81,63 147,166 184,261 2,5 4,12 6,17 11,31 53,157 55,183l-1313 0c2,-29 66,-219 73,-233l53 -100c60,-93 145,-168 246,-213 21,-9 32,-14 55,-22 17,-6 41,-13 60,-17 17,-3 15,-3 29,-7l110 -12zm-1291 733l5 166c4,43 8,94 18,135l31 127c6,21 12,43 19,62l55 138c28,60 66,117 102,172 41,62 93,118 145,170l80 73c1,1 2,2 2,2 32,30 98,74 135,94 83,45 119,68 211,104 78,30 163,54 246,69 15,3 24,2 36,5 18,4 14,5 35,5l235 11c112,1 262,-20 376,-57 73,-23 148,-50 217,-84l152 -91c6,-4 10,-6 17,-10 43,-30 86,-65 123,-102 1,-1 4,-5 7,-7l16 -16c3,-3 3,-3 7,-7l41 -40c1,-1 2,-2 2,-2l36 -45c44,-56 86,-114 120,-176l22 -41c14,-27 31,-55 37,-84 -118,0 -237,0 -355,0 -160,0 -263,-11 -382,63 -117,72 -107,104 -293,157 -13,4 -23,4 -37,8 -57,15 -125,15 -187,15 -75,0 -183,-30 -247,-59 -43,-19 -85,-46 -121,-77l-5 -4c-34,-28 -66,-60 -92,-97 -12,-17 -21,-31 -32,-49l-53 -109c-7,-19 -13,-37 -19,-57 -7,-23 -10,-42 -16,-65l-26 -135c112,0 1818,7 1867,-4 82,-18 112,-103 100,-182 -10,-66 -6,-121 -22,-194 -5,-24 -6,-39 -12,-60 -19,-75 -40,-146 -72,-216 -15,-34 -29,-64 -47,-97 -24,-45 -53,-92 -84,-132 -5,-6 -3,-3 -8,-10l-193 -203c-1,-1 -2,-1 -2,-2l-133 -96c-15,-9 -30,-17 -46,-26 -46,-28 -95,-49 -146,-70 -80,-32 -164,-63 -249,-75 -75,-10 -153,-27 -229,-27 -69,0 -224,-3 -292,13l-189 40c-103,32 -204,71 -296,126l-240 183c-39,39 -72,81 -108,122 -49,55 -81,124 -119,187 -24,41 -42,90 -59,134l-18 58c-5,15 -6,11 -11,30 -29,111 -53,222 -53,338z"/>
   <path class="fil0" d="M11603 1709l-79 -173c-45,-101 -116,-174 -254,-174l-279 0c-10,0 -13,3 -13,13l0 2375c0,10 3,13 13,13l382 0c123,0 222,-76 276,-183 26,-51 25,-117 25,-181 0,-226 0,-453 0,-679 0,-209 -17,-411 76,-598 35,-70 60,-94 109,-143 16,-16 29,-24 47,-38 33,-25 71,-42 113,-58 119,-46 307,-47 425,27l68 54c3,3 6,7 8,9l45 58c79,118 84,265 84,406l0 981c0,96 19,175 80,244 15,17 24,25 43,38 54,37 114,65 183,65l378 0c10,0 13,-3 13,-13l0 -1480c0,-18 1,-37 0,-54 -3,-95 -23,-213 -51,-305l-37 -107c-15,-38 -55,-114 -78,-147 -8,-11 -13,-21 -22,-32 -10,-12 -15,-22 -25,-34l-81 -85c-84,-71 -64,-56 -166,-117 -34,-21 -118,-52 -160,-65 -28,-8 -163,-35 -194,-35 -157,0 -156,-6 -294,17 -151,25 -363,117 -473,228l-38 39c-4,4 -5,5 -9,9 -22,22 -100,114 -117,125z"/>
   <path class="fil0" d="M702 2155l-114 -215c-109,-254 -166,-566 -2,-810 31,-46 64,-91 106,-128 42,-37 86,-69 133,-101 143,-96 345,-156 512,-190l196 -33c120,-19 249,-25 374,-36 14,-1 35,-3 53,-5 33,-4 71,-5 109,-8l215 -19c34,-4 74,-4 113,-8l324 -27c135,-9 283,-29 423,-36 35,-2 75,-9 112,-9 -14,61 3,125 -47,273 -42,127 -115,238 -209,331 -17,17 -34,36 -52,51 -12,10 -18,15 -30,24 -120,91 -267,159 -422,172 -244,21 -496,9 -742,9 -35,0 -74,-2 -108,0 -137,7 -264,84 -352,183 -55,62 -125,193 -125,307l0 40 1255 0c245,0 465,-68 672,-183 20,-11 35,-22 53,-33 88,-53 167,-120 239,-193 87,-87 157,-187 221,-292 44,-73 81,-157 107,-239 46,-146 71,-280 71,-446l0 -535 -229 9c-20,1 -22,4 -45,5 -120,1 -249,16 -369,18 -23,0 -25,4 -45,5 -17,1 -32,-1 -48,1l-312 17c-23,0 -25,4 -45,5 -15,1 -30,-1 -45,0l-139 9c-22,0 -23,3 -41,4 -16,1 -33,0 -49,0 -22,1 -22,4 -45,5 -105,3 -214,5 -320,17l-269 14c-30,1 -59,2 -89,6 -299,38 -588,87 -867,203 -44,18 -85,44 -126,67 -45,25 -76,50 -114,80 -72,56 -133,127 -187,200 -14,19 -28,35 -40,54 -14,21 -24,41 -37,62 -86,141 -104,320 -86,480 13,115 45,199 81,305 20,58 83,185 120,240 4,7 7,10 11,16 37,62 192,294 252,333z"/>
   <path class="fil0" d="M3301 2775c0,138 -10,229 -70,348l-32 53c-4,7 -7,12 -12,19 -29,42 -72,88 -109,121 -231,204 -551,270 -848,312l-417 37c-34,2 -66,8 -104,9 -100,3 -306,29 -427,36 -142,9 -285,27 -427,36 -77,5 -260,27 -324,27 0,-163 42,-310 117,-428 71,-112 144,-204 257,-279 150,-99 312,-153 499,-153l648 0c85,0 130,-2 194,-22l145 -71c144,-100 228,-262 228,-438l-1259 0c-159,0 -288,26 -427,72 -62,21 -119,45 -177,74 -56,28 -109,62 -160,96 -17,11 -30,21 -47,34 -72,54 -135,116 -197,181l-58 68c-6,7 -11,16 -17,24 -42,57 -85,117 -116,181 -3,7 -3,7 -6,12 -48,93 -85,191 -112,293 -26,95 -41,195 -41,296l0 589c48,0 91,-2 139,-4l279 -18c91,1 175,-13 270,-13 26,0 37,-5 67,-5 31,0 47,-4 72,-5 81,-2 206,-14 275,-13l558 -32c30,0 39,-5 67,-5 52,0 75,1 128,-7 32,-5 152,-4 213,-12l251 -33c44,-7 83,-16 124,-22 73,-10 164,-33 237,-53 165,-45 320,-107 461,-201 43,-29 83,-64 119,-101 160,-160 293,-351 293,-593 0,-137 -14,-248 -57,-370 -15,-42 -32,-92 -51,-129 -30,-60 -57,-120 -91,-178 -12,-20 -23,-37 -34,-56 -23,-38 -47,-72 -71,-109 -21,-32 -133,-181 -163,-197 6,23 59,103 74,133 72,143 142,316 142,492z"/>
   <path class="fil0" d="M5509 2015c0,92 9,181 38,268 16,48 35,87 62,127 30,45 64,85 107,118l64 48c40,24 82,47 125,64l113 40c20,6 40,13 60,17 61,13 121,33 183,41 25,3 40,7 65,11l254 48c18,4 36,10 56,16 173,51 301,174 243,364 -35,115 -156,193 -272,205 -57,6 -120,8 -172,-4 -105,-24 -172,-67 -235,-148 -22,-28 -70,-69 -103,-86 -11,-6 -20,-8 -32,-13 -14,-6 -20,-9 -37,-12 -64,-14 -121,-8 -178,-9l-350 2c-17,0 -2,1 -13,-4 0,100 29,173 66,253l38 70c58,86 118,160 207,220 43,29 85,59 133,78l156 60c30,10 54,14 86,22 83,21 175,31 262,35l193 0c5,0 18,-1 24,-1l227 -34c32,-8 55,-13 86,-22 55,-15 107,-34 157,-59 81,-40 159,-87 224,-150 27,-26 55,-54 78,-84 9,-12 14,-20 22,-32 56,-77 123,-246 123,-353 0,-83 3,-177 -18,-256l-27 -90c0,-1 -1,-2 -1,-3 0,-1 -1,-2 -1,-3 -17,-44 -41,-88 -71,-123 -69,-81 -148,-133 -245,-177 -15,-7 -34,-15 -52,-20l-234 -67 -371 -70c-59,-15 -121,-24 -177,-48 -52,-23 -98,-44 -137,-83 -98,-100 -75,-280 22,-368 32,-29 73,-53 114,-66 5,-2 9,-2 14,-4 3,-1 11,-4 14,-4 72,-19 166,-18 237,2 56,15 98,39 142,74 6,4 11,7 15,12l22 27c69,82 166,117 275,117l423 0c0,-74 -37,-164 -69,-228 -63,-126 -169,-237 -294,-304 -12,-6 -20,-11 -32,-17 -130,-72 -277,-106 -423,-121 -87,-9 -173,-8 -262,-8 -41,0 -144,12 -187,20 -134,24 -301,70 -414,153l-143 118c-71,74 -120,165 -151,263 -10,31 -10,51 -16,87 -5,33 -12,54 -12,92z"/>
  </g>
 </g>
</svg>
